<svg xmlns="http://www.w3.org/2000/svg" xmlns:xlink="http://www.w3.org/1999/xlink" viewBox="0 0 700 700"><defs><style>.cls-1{fill:url(#linear-gradient);}.cls-2{fill:url(#Unbenannter_Verlauf_51);}.cls-3{fill:url(#Unbenannter_Verlauf_51-2);}.cls-4{fill:url(#Unbenannter_Verlauf_51-3);}.cls-5{fill:url(#Unbenannter_Verlauf_86);}.cls-6{fill:url(#Unbenannter_Verlauf_4);}.cls-7{fill:url(#Unbenannter_Verlauf_91);}</style><linearGradient id="linear-gradient" x1="-75.56" y1="345.75" x2="816.24" y2="354.65" gradientUnits="userSpaceOnUse"><stop offset="1" stop-color="#fff"/><stop offset="1" stop-color="#ebf4ff"/><stop offset="1" stop-color="#9dc8ff"/><stop offset="1" stop-color="#64a7ff"/><stop offset="1" stop-color="#4094ff"/><stop offset="1" stop-color="#338cff"/></linearGradient><linearGradient id="Unbenannter_Verlauf_51" x1="481.38" y1="153.51" x2="419.52" y2="262.63" gradientTransform="translate(-16.61 378.09) rotate(-45)" gradientUnits="userSpaceOnUse"><stop offset="0" stop-color="#f8b133"/><stop offset="0.5" stop-color="#f08835"/><stop offset="1" stop-color="#e5332a"/></linearGradient><linearGradient id="Unbenannter_Verlauf_51-2" x1="451.98" y1="445.34" x2="390.12" y2="554.46" gradientTransform="translate(478.34 -147.88) rotate(45)" xlink:href="#Unbenannter_Verlauf_51"/><linearGradient id="Unbenannter_Verlauf_51-3" x1="209.28" y1="273.37" x2="147.43" y2="382.48" gradientTransform="translate(439.02 603.9) rotate(164.46)" xlink:href="#Unbenannter_Verlauf_51"/><linearGradient id="Unbenannter_Verlauf_86" x1="268.72" y1="283.59" x2="119.35" y2="547.08" gradientUnits="userSpaceOnUse"><stop offset="0"/><stop offset="0.21" stop-color="#0e2747"/><stop offset="0.47" stop-color="#1e5295"/><stop offset="0.68" stop-color="#2971ce"/><stop offset="0.84" stop-color="#3085f2"/><stop offset="0.92" stop-color="#338cff"/></linearGradient><linearGradient id="Unbenannter_Verlauf_4" x1="445.86" y1="299.23" x2="288.08" y2="54.12" xlink:href="#Unbenannter_Verlauf_86"/><linearGradient id="Unbenannter_Verlauf_91" x1="309.95" y1="451.31" x2="693.7" y2="455.14" gradientUnits="userSpaceOnUse"><stop offset="0"/><stop offset="0.23" stop-color="#0e2747"/><stop offset="0.5" stop-color="#1e5295"/><stop offset="0.73" stop-color="#2971ce"/><stop offset="0.89" stop-color="#3085f2"/><stop offset="0.98" stop-color="#338cff"/></linearGradient></defs><g id="Layer_2" data-name="Layer 2"><circle class="cls-1" cx="350" cy="350" r="350"/><circle class="cls-2" cx="449.9" cy="209.81" r="62.36"/><circle class="cls-3" cx="419.48" cy="504.19" r="62.36"/><circle class="cls-4" cx="180.12" cy="332.62" r="62.36"/></g><g id="Ebene_4" data-name="Ebene 4"><path class="cls-5" d="M269.61,484H118.32l41.49-71.85a80.16,80.16,0,1,0-38.95-22.54l-60.8,105.3a22.5,22.5,0,0,0-.19,22.85A22.48,22.48,0,0,0,79.33,529H269.61a22.5,22.5,0,0,0,0-45ZM178.7,294.24a40.89,40.89,0,1,1-40.88,40.88A40.93,40.93,0,0,1,178.7,294.24Z"/><path class="cls-6" d="M243.89,222.22A22.43,22.43,0,0,0,274.53,214L349.94,83.39,391.3,155a79.89,79.89,0,1,0,38.87-22.4l-60.61-105a22.43,22.43,0,0,0-39-.35c-.07.12-.13.24-.2.35L235.68,191.58A22.42,22.42,0,0,0,243.89,222.22Zm169.7-32.56a40.88,40.88,0,1,1,15,55.85A40.93,40.93,0,0,1,413.59,189.66Z"/><path class="cls-7" d="M642.4,500.77a22.11,22.11,0,0,0-2.25-5.47l-.21-.36L545,330.51a22.51,22.51,0,0,0-33.49-6.37c-8.83,6.93-10.88,19.51-5.27,29.23L581.68,484h-83a80.93,80.93,0,0,0-15.64-29.15A80.13,80.13,0,1,0,498.66,529h121.6a22.5,22.5,0,0,0,22.14-28.26ZM442.56,542.1a40.88,40.88,0,1,1,15-55.84A40.93,40.93,0,0,1,442.56,542.1Z"/></g></svg>